<svg xmlns="http://www.w3.org/2000/svg" viewBox="0 0 64 64"><polygon fill="#e0e0e2" points="56 20.1 56 57 8 57 8 20.1 32 11 56 20.1"/><rect width="18" height="17" x="23" y="32" fill="#ff5023"/><polygon fill="#ff9811" points="61 14 61 22 32 11 3 22 3 14 32 3 61 14"/><rect width="60" height="4" x="2" y="57" fill="#787680"/><circle cx="32" cy="38" r="2" fill="#67cdd9"/><polygon fill="#acabb1" points="50 3 50 9.83 42 6.79 42 3 50 3"/><path fill="none" d="M39,25a7,7,0,0,0-14,0v7H23V49H41V32H39Z"/><path d="M60.65,22.93A.842.842,0,0,0,61,23a1,1,0,0,0,1-1V14a.984.984,0,0,0-.65-.93L51,9.14V3a1,1,0,0,0-1-1H42a1,1,0,0,0-1,1V5.34L32.35,2.07a.941.941,0,0,0-.7,0l-29,11A.984.984,0,0,0,2,14v8a.994.994,0,0,0,1.35.93L7,21.55V56H2v2H62V56H57V21.55ZM43,4h6V8.38L43,6.1ZM55,56H9V20.79l23-8.72,23,8.72ZM32.35,10.07a.91.91,0,0,0-.7,0L4,20.55V14.69L32,4.07,60,14.69v5.86Z"/><rect width="60" height="2" x="2" y="60"/><path d="M32,35a2.993,2.993,0,0,0-1,5.816V45h2V40.816A2.993,2.993,0,0,0,32,35Zm0,4a1,1,0,1,1,1-1A1,1,0,0,1,32,39Z"/><path d="M24,25v6H23a1,1,0,0,0-1,1V49a1,1,0,0,0,1,1H41a1,1,0,0,0,1-1V32a1,1,0,0,0-1-1H40V25a8,8,0,0,0-16,0ZM40,48H24V33H40ZM38,25v6H26V25a6,6,0,0,1,12,0Z"/></svg>